<svg width="192" height="192" viewBox="0 0 192 192" fill="none" xmlns="http://www.w3.org/2000/svg">
<circle cx="71" cy="69" r="60" fill="#311687"/>
<path d="M72.7599 100.464C72.8011 100.459 75.3998 96.0577 79.4762 91.3658C85.8215 84.7187 93.6309 77.1221 93.6309 77.1221H105.833L118.036 78.0717L131.214 79.496L168.309 86.6179L167.333 107.983L172.702 112.257L174.167 118.429L175.143 133.147L171.726 135.521V136.946V138.37L171.238 139.794L170.75 141.219L170.262 142.168L168.798 143.593L167.333 144.067H165.869L164.405 142.643L163.917 141.693L163.428 139.794L162.452 140.269L139.512 153.088L127.309 159.736L126.821 164.009L126.333 167.332L125.357 169.706L124.381 171.605L122.428 173.979L120.964 175.404L119.012 176.353L116.083 177.303L114.131 176.828L111.69 174.929L109.25 169.706L94.119 178.727C94.119 178.727 86.3094 175.878 75.0832 171.13C75.0823 171.13 75.0814 171.13 75.0805 171.129C64.3428 165.907 50.4487 159.291 39.9404 154.038L22.8571 145.017C22.8571 145.017 23.8332 136.946 25.2975 131.723C26.7618 126.5 30.1785 118.429 30.1785 118.429C30.1785 118.429 29.6905 114.63 42.869 109.408C48.4622 107.511 65.6346 101.454 72.7599 100.464Z" fill="#FDF8F2"/>
<path d="M30.0731 118.316L102.495 146.917C110.515 138.333 123.342 132.617 132.694 140.935L164.498 122.999C166.634 120.139 168.598 115.98 174.026 118.32L172.78 112.079L167.169 107.92L168.505 86.6038L144.721 81.9242C144.721 81.9242 114.256 75.9457 93.6778 76.9864C93.6778 76.9864 76.8405 92.324 72.5647 100.384C72.5647 100.384 32.209 109.736 30.0731 118.316Z" stroke="#444444" stroke-width="1.5" stroke-linecap="round" stroke-linejoin="round"/>
<path d="M72.5648 100.38C86.0597 106.229 125.08 114.681 134.834 115.459M134.834 115.459C134.834 115.459 140.18 91.8033 144.721 81.9238M134.834 115.459L167.169 107.92M102.495 146.917L94.3456 178.758M94.3456 178.758C80.9835 175.64 22.8572 145.223 22.8572 145.223C22.8572 138.728 25.528 128.195 30.0732 118.319M94.3456 178.758L109.449 169.676M153.995 83.747L154.537 110.863M167.4 144.163C171.265 142.948 172.164 139.153 171.898 133.908C171.683 129.68 169.696 128.666 167.185 129.919C164.674 131.173 163.198 136.118 163.694 140.403C164.018 143.221 165.975 144.615 167.404 144.163M127.388 159.653L162.983 140.068M117.403 176.958C125.837 174.299 127.798 166.026 127.216 154.586C126.747 145.356 122.405 143.145 116.927 145.876C111.448 148.607 108.227 159.402 109.313 168.75C110.023 174.903 114.287 177.945 117.403 176.958Z" stroke="#444444" stroke-width="1.5" stroke-linecap="round" stroke-linejoin="round"/>
<path d="M174.03 118.32L175.143 133.179L171.941 135.431M46.5513 146.914L61.1629 153.154" stroke="#444444" stroke-width="1.5" stroke-linecap="round" stroke-linejoin="round"/>
</svg>
