<svg width="192" height="192" viewBox="0 0 192 192" fill="none" xmlns="http://www.w3.org/2000/svg">
<circle cx="74" cy="65" r="60" fill="#311687"/>
<path d="M159.655 168.183H64.8169V118.169C64.8169 118.169 69.0634 82.7817 70.4789 81.3662C71.8944 79.9507 71.4225 79.007 75.669 76.1759C77.0845 75.2324 81.331 73.3451 83.6901 72.4014C91.2086 69.582 101.001 68.075 110.584 67.6829C121.908 67.2112 148.803 70.986 153.993 81.8382C155.656 85.3157 155.88 90.3311 156.824 95.5212C158.592 106.546 159.655 118.434 159.655 118.434V168.183Z" fill="#FDF8F2"/>
<path d="M72.838 178.092V168.183L86.5211 168.655H137.951H151.634V178.092L149.746 181.866L145.5 183.754L141.254 182.81L137.951 178.563V168.655H86.5211L86.0493 179.035L83.2183 182.81L78.9718 183.754L74.7253 181.866L72.838 178.092Z" fill="#FDF8F2"/>
<path d="M151.682 168.398H159.646V118.424C159.083 114.043 157.1 95.8355 155.205 86.5691C155.003 84.384 154.369 82.2607 153.34 80.3225C151.334 77.6127 148.574 75.5534 145.406 74.4015C139.802 71.8511 133.891 70.0399 127.82 69.0133C122.688 68.1242 117.487 67.6883 112.278 67.7107C107.039 67.6831 101.808 68.119 96.6461 69.0133C90.5756 70.0399 84.6643 71.8511 79.0607 74.4015C75.892 75.5534 73.1326 77.6127 71.1265 80.3225C70.0975 82.2607 69.4635 84.384 69.2614 86.5691C67.3666 95.954 65.3831 114.043 64.9094 118.424V168.398H72.8732M151.682 168.398V176.361C151.743 177.291 151.613 178.224 151.3 179.102C150.986 179.979 150.495 180.783 149.858 181.464C149.222 182.144 148.452 182.686 147.597 183.057C146.742 183.428 145.82 183.619 144.888 183.619C143.956 183.619 143.033 183.428 142.178 183.057C141.323 182.686 140.554 182.144 139.917 181.464C139.28 180.783 138.789 179.979 138.476 179.102C138.162 178.224 138.032 177.291 138.093 176.361V168.398H86.4619V176.361C86.5233 177.291 86.3932 178.224 86.0795 179.102C85.7659 179.979 85.2754 180.783 84.6385 181.464C84.0016 182.144 83.2317 182.686 82.3767 183.057C81.5216 183.428 80.5995 183.619 79.6676 183.619C78.7356 183.619 77.8135 183.428 76.9584 183.057C76.1034 182.686 75.3336 182.144 74.6966 181.464C74.0597 180.783 73.5692 179.979 73.2556 179.102C72.9419 178.224 72.8118 177.291 72.8732 176.361V168.398M151.682 168.398H72.8732M87.4981 79.4935H136.879M81.0738 87.9902C80.0884 88.0232 79.1464 88.404 78.4149 89.0651C77.6833 89.7262 77.2094 90.6249 77.0771 91.602L73.3173 118.898C73.163 119.975 73.4357 121.07 74.0772 121.95C74.7187 122.829 75.6783 123.423 76.7515 123.605H147.093C148.188 123.606 149.24 123.179 150.025 122.416C150.81 121.653 151.266 120.614 151.297 119.52C151.315 119.333 151.315 119.144 151.297 118.957L147.537 91.6612C147.401 90.6593 146.906 89.7409 146.143 89.0767C145.381 88.4124 144.404 88.0474 143.392 88.0494H81.2218L81.0738 87.9902ZM79.712 139.681C78.2983 139.675 76.9148 140.089 75.737 140.871C74.5591 141.652 73.6401 142.766 73.0964 144.071C72.5527 145.376 72.4089 146.813 72.6833 148.2C72.9576 149.587 73.6377 150.861 74.6373 151.861C75.6369 152.86 76.911 153.54 78.2977 153.815C79.6845 154.089 81.1215 153.945 82.4264 153.401C83.7314 152.858 84.8454 151.939 85.6271 150.761C86.4088 149.583 86.823 148.2 86.8172 146.786C86.8172 144.901 86.0686 143.094 84.7361 141.762C83.4036 140.429 81.5964 139.681 79.712 139.681ZM144.843 139.681C143.431 139.681 142.05 140.1 140.876 140.885C139.702 141.67 138.788 142.787 138.249 144.092C137.71 145.397 137.57 146.834 137.848 148.218C138.125 149.603 138.808 150.874 139.809 151.871C140.809 152.868 142.083 153.545 143.469 153.817C144.855 154.089 146.291 153.943 147.594 153.399C148.897 152.854 150.01 151.935 150.79 150.758C151.57 149.581 151.984 148.198 151.978 146.786C151.982 145.849 151.8 144.921 151.442 144.055C151.085 143.19 150.559 142.403 149.895 141.742C149.232 141.081 148.443 140.559 147.576 140.205C146.709 139.851 145.78 139.673 144.843 139.681Z" stroke="#666664" stroke-width="1.5" stroke-linecap="round" stroke-linejoin="round"/>
</svg>
