<svg width="193" height="192" viewBox="0 0 193 192" fill="none" xmlns="http://www.w3.org/2000/svg">
<circle cx="45.3655" cy="40.2233" r="40.2233" fill="#5E944E"/>
<path d="M27.0572 31.6648C23.2701 31.6648 21.5714 28.7107 21.5714 25.0675C21.5714 21.4242 23.2701 19.7904 27.0572 19.7904C30.8443 19.7904 32.5429 22.7435 32.5429 26.3868C32.5429 30.0301 30.8443 31.6648 27.0572 31.6648Z" fill="#FDF8F2"/>
<path d="M35.2857 44.8577L45.5524 139.068L44.8857 142.489H40.7714L37.1112 138.665L28.4286 104.228L27.0571 105.548L20.2 121.38L7.85715 137.212H3.74287L1.00001 134.573L10.6 118.741L14.7143 110.825L16.0857 101.59L18.8286 85.7574L16.0857 80.48L17.4571 73.8833L18.8286 44.8577L22.9429 40.8997L29.8 39.5803L35.2857 44.8577Z" fill="#FDF8F2"/>
<path d="M27.048 31.9754C23.6481 31.9754 20.892 29.3073 20.892 26.016C20.892 22.7247 23.6481 20.0565 27.048 20.0565C30.4478 20.0565 33.204 22.7247 33.204 26.016C33.204 29.3073 30.4478 31.9754 27.048 31.9754Z" stroke="black" stroke-width="2" stroke-miterlimit="10"/>
<path d="M45.5479 139.068C45.7689 141.242 44.37 143.022 42.438 143.022C40.506 143.022 38.4373 141.297 37.8449 139.189L26.5878 99.2326C25.9954 97.1241 24.4462 93.935 23.1521 92.1465L18.6387 85.9109C17.3447 84.1224 16.3741 80.872 16.4835 78.689L17.5087 58.3295L18.1626 47.7497C18.4314 43.3881 22.3478 39.7366 26.8634 39.7366H26.9683C31.4839 39.7366 35.5871 43.3727 36.0929 47.7147L37.232 57.5908L45.5479 139.068Z" stroke="black" stroke-width="2" stroke-miterlimit="10" stroke-linecap="round" stroke-linejoin="round"/>
<path d="M18.4815 85.698L14.7451 108.58C14.3942 110.739 13.1457 114.033 11.9747 115.899L2.07541 131.671C0.904353 133.536 1.3304 135.96 3.02318 137.051C4.71597 138.143 7.19705 137.599 8.53898 135.842L19.3496 121.67C20.6892 119.91 22.4572 116.804 23.2774 114.772L27.7975 103.543M26.6379 49.665L26.524 62.0793C26.5058 64.2645 26.9295 67.7867 27.4626 69.9106L33.2997 93.0339" stroke="black" stroke-width="2" stroke-miterlimit="10" stroke-linecap="round" stroke-linejoin="round"/>
<path d="M127.302 78.0342L105.566 82.3356L109.602 85.0259L112.292 87.7161L114.982 90.4064L120.363 93.0967L127.302 91.442L129.545 87.4196L127.302 78.0342Z" fill="#FDF8F2"/>
<path d="M127.302 102.168L125.961 100.827L96.464 128.983L101.827 137.028L102.876 138.831H109.602L127.302 102.168Z" fill="#FDF8F2"/>
<path d="M141.885 106.548L139.195 107.893L135.159 110.583C135.159 110.583 131.728 115.182 131.124 118.654C130.764 120.724 131.016 121.936 131.124 124.035C131.314 127.744 131.524 129.858 132.469 133.451C133.785 138.454 135.067 141.195 137.849 145.557C139.262 147.771 141.885 150.937 141.885 150.937L144.575 153.628L149.956 159.008L155.336 161.699L160.717 163.044H166.097L171.478 160.353L175.513 154.973L176.858 148.247V141.522L175.513 133.451L172.823 125.38L166.097 117.309L159.372 110.583L152.646 106.548L147.265 105.203L141.885 106.548Z" fill="#FDF8F2"/>
<path d="M86.4304 136.796L84.2897 136.797L81.0268 137.498C81.0268 137.498 77.7221 139.535 76.53 141.552C75.8191 142.755 75.7067 143.571 75.2959 144.904C74.5699 147.261 74.2227 148.628 74.0184 151.094C73.7338 154.529 73.9458 156.546 74.7697 159.935C75.1879 161.655 76.1815 164.261 76.1815 164.261L77.3284 166.586L80.0085 169.77L84.0439 173.805L86.7342 175.15L89.4244 176.496L93.4598 175.15L96.1501 173.805L98.8404 169.77L100.186 165.734L100.186 161.699C101.531 149.593 92.1149 138.158 90.7698 137.486C89.4247 136.813 86.4304 136.796 86.4304 136.796Z" fill="#FDF8F2"/>
<path d="M100.352 158.101C101.073 167.028 97.6427 174.573 91.7991 175.863C86.4583 177.042 80.6958 172.64 77.3159 165.47M92.9052 140.746C93.2218 141.059 93.5328 141.389 93.8382 141.735M74.4109 152.802C74.3271 144.785 77.6651 138.271 83.0589 137.079C84.0171 136.872 85.0041 136.835 85.9751 136.97M74.2852 159.816L84.6399 156.492M105.559 152.067C103.101 152.727 100.366 150.514 99.4471 147.123C98.5281 143.732 99.7739 140.45 102.229 139.791C104.685 139.132 107.422 141.347 108.341 144.735M84.8578 154.101L100.9 140.414M85.6539 157.584L104.9 152.179" stroke="black" stroke-width="2" stroke-linecap="round" stroke-linejoin="round"/>
<path d="M103.062 146.841C111.078 149.26 114.821 150.461 118.285 152.749C115.737 154.33 110.402 155.33 106.777 154.749M133.57 114.087C134.913 111.168 136.938 108.844 139.626 107.389C149.271 102.165 163.804 110.104 172.084 125.12C180.363 140.137 179.257 156.545 169.612 161.768C160.774 166.556 147.838 160.293 139.36 147.662M133.704 136.21C132.862 133.708 132.259 131.132 131.902 128.517M147.447 136.33L136.472 141.249M163.802 128.995L152.137 134.224" stroke="black" stroke-width="2" stroke-linecap="round" stroke-linejoin="round"/>
<path d="M130.025 108.73C127.93 111.752 128.215 114.434 130.131 117.517L144.305 140.339M139.894 113.381L153.548 135.545M125.698 100.428L91.436 133.612L84.3438 152.221L85.5421 158.431M92.8717 123.57L100.819 135.679M84.4975 123.068C91.3969 121.649 92.2768 117.861 97.5421 114.4M126.967 103.249L109.891 138.797M122.623 95.7689L134.062 113.107M97.5477 130.707L95.4192 136.867M78.0142 84.593L92.4723 80.7382M131.528 73.8723L138.416 73.931M107.386 81.498L126.073 78.012M123.724 88.4896L125.824 91.5678M96.1762 79.674C100.592 78.5567 104.173 81.646 108.288 84.4868C113.159 87.8443 115.69 93.5678 123.346 92.4533C123.346 92.4533 126.69 91.8108 127.997 90.8108C129.134 89.9421 129.573 87.4421 129.26 86.1097L127.039 76.6097C126.869 75.8779 126.668 74.7243 128.022 74.1852M152.436 134.922C152.939 136.554 152.232 138.216 150.86 138.637C149.489 139.056 147.972 138.079 147.469 136.448C146.967 134.816 147.676 133.151 149.048 132.732C150.419 132.313 151.936 133.291 152.436 134.922Z" stroke="black" stroke-width="2" stroke-linecap="round" stroke-linejoin="round"/>
</svg>
