<svg width="192" height="192" viewBox="0 0 192 192" fill="none" xmlns="http://www.w3.org/2000/svg">
<circle cx="78" cy="72" r="60" fill="#311687"/>
<path d="M109.347 44.5C104.928 44.5 102 42.0316 102 37.6133C102 33.195 104.928 30 109.347 30C113.765 30 116.5 33.195 116.5 37.6133C116.5 42.0316 113.765 44.5 109.347 44.5Z" fill="#FDF8F2"/>
<path d="M119 61L130.819 175V177L129.5 179L127 180L124.5 179L122.5 177L120.939 171.77L115.5 151.5L110 133L102.5 150.5L99.5 154.5L87 172L84.5 173H81.5L79.5 171L79 168.5L80 165.5L85 157.5L93 144L94.5 139L96 129L99 109.5L96.8746 104V94L99.5 60L105 55L111 54L116 57L119 61Z" fill="#FDF8F2"/>
<path d="M109.16 44.704C105.181 44.704 101.955 41.4577 101.955 37.4533C101.955 33.4489 105.181 30.2026 109.16 30.2026C113.139 30.2026 116.365 33.4489 116.365 37.4533C116.365 41.4577 113.139 44.704 109.16 44.704Z" stroke="#666664" stroke-width="1.5" stroke-miterlimit="10"/>
<path d="M130.813 175C131.072 177.645 129.435 179.81 127.173 179.81C124.912 179.81 122.491 177.712 121.797 175.146L108.621 126.533C107.928 123.968 106.115 120.088 104.6 117.912L99.3173 110.325C97.8027 108.149 96.6667 104.194 96.7947 101.538L97.9947 76.7678L98.76 63.8958C99.0747 58.5892 103.659 54.1465 108.944 54.1465H109.067C114.352 54.1465 119.155 58.5705 119.747 63.8531L121.08 75.8691L130.813 175Z" stroke="#666664" stroke-width="1.5" stroke-miterlimit="10" stroke-linecap="round" stroke-linejoin="round"/>
<path d="M99.1333 110.067L94.76 137.907C94.3493 140.533 92.888 144.541 91.5173 146.811L79.9306 166C78.56 168.269 79.0586 171.219 81.04 172.547C83.0213 173.875 85.9253 173.213 87.496 171.075L100.149 153.832C101.717 151.691 103.787 147.912 104.747 145.44L110.037 131.779M108.68 66.2266L108.547 81.3306C108.525 83.9892 109.021 88.2746 109.645 90.8586L116.477 118.992" stroke="#666664" stroke-width="1.5" stroke-miterlimit="10" stroke-linecap="round" stroke-linejoin="round"/>
</svg>
