<svg width="192" height="192" viewBox="0 0 192 192" fill="none" xmlns="http://www.w3.org/2000/svg">
<circle cx="74" cy="67" r="60" fill="#311687"/>
<g clip-path="url(#clip0_514_406)">
<path d="M123.544 66.0482L98.4939 66.1837L96.365 66.1835L102.5 73.4998L106 77.9998L108 79.9998L112 81.9998L115.5 82.4998L119.5 82.1687L122.5 80.4998L124 77.7037L123.544 66.0482Z" fill="#FDF8F2"/>
<path d="M117.5 106.5L119.5 104L121 103L123 108.5L123.5 109.5L125.5 107.5L128 105.5L131.5 104L135 103.5L138 103.5L141 104L144 105L147.5 107L150.5 109L155 113L158.5 117.5L162 123L165 129.5L167.5 138L168.5 144.5L169 150L168.5 156L167.5 160.5L166 165L163 170L161 172.5L157.5 175L155 176.5L152.5 177L149.5 177.5L146.5 177L143 176L140.5 175L138 173.5L136 172L133.5 170L131.5 168L129.5 166L128 164L127 162.5L125 159L123.5 156.5L122 153.5L120.5 150L119.5 147.5L119 145L118.5 142.5L118 140.5L117.5 137.5L117 134L117 131.5L117 129L117 125.5L117.5 122.5L118 119L118.5 116.5L116.5 111.5L116.5 108.5L117.5 106.5Z" fill="#FDF8F2"/>
<path d="M57.0001 126.5L60.0001 127L62.5 128L64.5 129L67 124.5L74 120.5L88.5 135L87 136.5L84 137.5L85 140L85.5 142.5L85 144L84 145.5L85 146L87.5 147.5L90 149L92 150.5L94 152L95 153.5L93 154L90 154.5L86.5 154.5L83.5 154L81 153L78.5 153L75 153L72.5 153L72.5 155.5L72.5 157.5L71.5 161.5L70.5 164.5L69 167.5L67 170.5L64 173L61 174.5L57 175L53.5 174L49.5 171.5L47 168L45 164.5L43.5001 161.5L42.5 157L42 153.5L42 150.5L42 147.5L42.5 143.5L43.5001 139.5L45 135.5L47 132L50 129L53 127L57.0001 126.5Z" fill="#FDF8F2"/>
<path d="M117.92 94.9843L116.625 93.0643L74.6972 119.948L79.2525 130.843L80.5476 132.763L88.5852 134.325L117.92 94.9843Z" fill="#FDF8F2" stroke="#666664" stroke-width="1.5"/>
<path d="M72.573 155.764C71.3565 166.635 65.4857 174.881 58.1788 175.067C51.5007 175.235 45.6176 168.614 43.2364 159.23M67.6891 133.221C67.9958 133.67 68.2918 134.137 68.5772 134.624M42.7056 143.365C44.4735 133.734 49.9937 126.702 56.7386 126.529C57.9356 126.504 59.1276 126.69 60.2603 127.078M40.9203 151.745L54.1098 150.173M80.2217 149.743C77.121 149.961 74.3579 146.671 74.0463 142.391C73.7348 138.111 75.9934 134.466 79.0908 134.248C82.1882 134.03 84.954 137.324 85.2662 141.6M54.9283 147.357L77.3515 134.685M55.0709 151.719L79.4053 149.724" stroke="#666664" stroke-width="1.5" stroke-linecap="round" stroke-linejoin="round"/>
<path d="M78.4455 142.896C87.4935 147.664 91.7012 149.977 95.3209 153.527C91.8981 154.829 85.2684 154.784 81.0568 153.243M122.657 110.735C124.948 107.549 127.918 105.234 131.479 104.116C144.26 100.101 159.835 113.006 166.262 132.94C172.689 152.873 167.539 172.288 154.757 176.303C143.045 179.983 128.995 169.46 121.775 152.34M117.662 137.291C117.236 134.095 117.113 130.866 117.295 127.648M134.111 140.638L119.806 143.977M155.429 135.655L140.225 139.205" stroke="#666664" stroke-width="1.5" stroke-linecap="round" stroke-linejoin="round"/>
<path d="M119.656 103.485C116.44 106.621 116.156 109.902 117.735 114.046L129.41 144.711M130.404 111.361L141.608 141.118M116.403 92.5238L67.5902 124.325L54.7502 144.983L54.7398 152.708M71.6519 112.62L78.3578 128.99M61.7287 110.066C70.3315 109.972 72.2692 105.636 79.3886 102.714M117.266 96.2019L88.509 134.842M113.802 86.2209L123.475 109.674M75.5949 122.267L71.6075 129.155M62.9223 62.4253L81.1552 61.1731M129.581 62.0433L137.826 63.719M98.8585 65.5597L122.076 65.7352M116.817 77.7499L118.619 81.93M85.844 60.7604C91.3992 60.45 94.9726 64.9885 99.2437 69.3534C104.302 74.5142 106.002 81.9662 115.442 82.4142C115.442 82.4142 119.6 82.4232 121.401 81.5289C122.966 80.7523 124.074 77.8571 124.01 76.1868L123.561 64.2792C123.528 63.3621 123.555 61.932 125.305 61.6014M140.421 140.112C140.643 142.185 139.409 144.013 137.666 144.199C135.924 144.382 134.333 142.856 134.111 140.783C133.888 138.71 135.127 136.879 136.869 136.697C138.611 136.514 140.201 138.04 140.421 140.112Z" stroke="#666664" stroke-width="1.5" stroke-linecap="round" stroke-linejoin="round"/>
</g>
<defs>
<clipPath id="clip0_514_406">
<rect width="144" height="140" fill="white" transform="translate(35 46)"/>
</clipPath>
</defs>
</svg>
